<svg width="60" height="60" viewBox="0 0 60 60" fill="none" xmlns="http://www.w3.org/2000/svg">
<path d="M53.9736 56.5967C53.3839 55.1625 52.9485 53.6615 52.5064 52.1718C52.0033 50.4742 51.5867 48.7513 51.0891 47.0528C50.9424 46.5525 50.6932 46.0662 50.4064 45.628C50.1214 45.1916 49.8252 45.2584 49.6747 45.7502C49.2693 47.0706 48.9242 48.4108 48.4728 49.7143C47.6564 52.0665 46.5438 54.2549 45.0212 56.2563C44.2613 57.2551 43.4111 58.1805 42.5318 59.0739C42.0916 59.5207 41.644 59.9599 41.1944 60.3981C40.8013 60.7818 40.3894 61.1844 40.6668 61.7665C40.8822 62.2179 41.3609 62.2612 41.8048 62.2593C41.8687 62.2593 41.9318 62.2574 41.9938 62.2565C44.2651 62.2189 46.5363 62.281 48.8066 62.3073C50.3923 62.3252 51.9788 62.3901 53.5635 62.3543C54.2322 62.3393 54.9658 62.3609 55.5103 61.8126C56.1216 61.1966 56.2204 60.7273 55.7802 59.9758C55.1332 58.8746 54.457 57.7723 53.9736 56.5967Z" fill="#121646"/>
<path d="M58.4181 37.7948C58.1228 37.7224 57.8341 37.6434 57.5538 37.5522C54.6459 36.623 52.6361 34.7345 50.425 32.6081C50.0874 32.2818 49.9774 31.9103 50.0009 31.4438C50.126 29.2713 49.8645 27.1252 49.4817 24.994C48.9428 22.0212 48.0522 19.1471 46.839 16.3755C46.5663 15.7539 46.2023 15.2037 46.0123 14.5444C45.9935 14.472 45.9785 14.3892 46.0274 14.3319C46.08 14.2679 46.1863 14.283 46.2662 14.313C46.9716 14.6008 48.0936 17.79 49.0002 16.9746C49.1939 16.8006 49.2654 16.5345 49.3153 16.2805C50.0846 12.481 49.114 6.62654 45.7208 4.27629C44.1624 3.19569 42.4526 2.14517 40.583 1.72478C39.6274 1.51223 38.5882 1.52352 37.7089 1.95614C37.2725 2.16868 36.8784 2.4828 36.4044 2.5966C35.559 2.80538 34.7172 2.33139 33.883 2.07746C32.8711 1.77369 31.767 1.78873 30.7663 2.12636C29.9622 2.39534 29.159 2.8731 28.3248 2.71792C27.168 2.50161 26.3338 1.16708 25.1357 0.75797C23.6986 0.26516 22.1026 0.265162 20.6308 0.595269C16.4071 1.54327 12.4412 4.50859 9.48713 7.56043C6.24532 10.9085 4.95593 15.3372 7.82249 19.3794C8.84667 20.824 10.3514 21.9497 12.0687 22.3936C12.4026 22.4811 12.7553 22.5488 13.0318 22.7538C14.1237 23.5654 11.8186 25.7379 11.3258 26.4433C10.264 27.9716 9.27458 29.5563 8.53913 31.2698C7.17451 34.4439 6.57918 37.6359 6.10142 41.0339C5.27475 46.9109 4.16781 52.9516 1.4188 58.2596C0.974899 59.1126 0.4219 59.9619 0.0729841 60.8572C-0.010718 61.0697 -0.0370513 61.3199 0.0729841 61.5174C0.137877 61.6312 0.243212 61.7187 0.357009 61.7789C0.971139 62.1203 1.90409 62.0441 2.58311 62.0478C4.63052 62.0554 6.67793 62.0629 8.72911 62.0666C9.77209 62.0704 10.8141 62.0742 11.8571 62.0742C12.6076 62.0742 13.7117 62.2641 14.3936 61.903C14.8337 61.6716 15.0764 61.1788 15.1977 60.6936C15.3754 59.9807 15.4892 59.249 15.6792 58.5361C16.2632 56.3561 17.0937 54.2814 18.1592 52.2876C19.8502 49.121 21.6174 45.5425 18.4781 42.6524C17.6514 41.8944 16.6996 41.2915 15.8128 40.6088C15.6425 40.4762 15.4751 40.2072 15.6538 40.0858C15.7225 40.0369 15.8165 40.0482 15.904 40.067C19.3283 40.7837 22.4939 44.4619 22.2813 47.984C22.1675 49.8226 21.4283 51.4722 20.8669 53.1782C20.2979 54.9115 19.6311 56.6251 19.4712 58.4675C19.4063 59.1954 19.3311 59.9308 19.3236 60.6625C19.3123 61.6105 19.6687 62.0996 20.7455 62.1033C24.6852 62.1108 28.6248 62.172 32.5645 62.2096C33.5651 62.2209 35.621 62.551 36.0226 61.2578C36.1703 60.7801 35.9812 60.2685 35.7348 59.8358C35.4884 59.4032 35.1734 58.9979 35.0408 58.5163C34.7981 57.6558 35.1771 56.7492 35.5796 55.9498C36.0461 55.0244 36.6264 54.1563 37.0891 53.2309C37.6318 52.2528 38.2685 51.3424 38.7575 50.3305C39.2729 49.2724 39.6905 48.1692 40.0356 47.0473C40.5021 45.5415 40.8397 43.9982 41.1049 42.4474C41.1614 42.1116 41.198 41.7731 41.2385 41.4345C41.2592 41.2643 41.2799 41.094 41.3043 40.9248C41.3316 40.7348 41.3739 40.5091 41.6203 40.5269C43.0903 40.6304 40.8839 49.0439 40.6911 49.5574C40.2397 50.7631 39.698 51.9349 39.0603 53.0569C38.26 54.4638 36.7891 55.741 37.1493 57.5194C37.2781 58.1486 37.4296 59.0515 37.9985 59.4493C38.7791 59.9995 39.7845 59.0853 40.3384 58.5888C41.2103 57.8035 41.9119 56.8677 42.6473 55.9573C44.6721 53.4547 46.2305 50.607 47.3638 47.6003C48.5958 44.3171 49.146 41.0517 49.5777 37.5936C49.604 37.3961 49.6463 37.1723 49.8128 37.0669C50.0028 36.9456 50.2492 37.0368 50.4532 37.1281C52.9558 38.235 55.6597 39.1303 58.3814 38.8679C58.7153 38.8341 59.1319 38.6939 59.1395 38.3601C59.146 38.03 58.7407 37.8701 58.4181 37.7948ZM45.1057 36.0851C45.0794 36.1801 45.007 36.2628 44.9232 36.3164C44.7643 36.4152 44.5518 36.4415 44.3693 36.4603C43.1561 36.5854 41.9617 36.2139 40.8698 35.7211C40.6958 35.6449 40.5209 35.5659 40.3469 35.4785C38.6823 34.6518 37.1352 33.4724 35.8571 32.1228C34.7727 30.9773 33.9159 29.6202 33.3281 28.1569C33.2031 27.8456 33.0554 27.5126 32.983 27.1825C32.9219 26.9023 32.9604 26.5721 33.1767 26.3784C33.3131 26.2571 33.4993 26.2119 33.6771 26.1734C34.2724 26.0558 34.9053 25.9909 35.5082 26.0445C35.7546 26.0596 36.0123 26.1245 36.1872 26.2947C36.3424 26.4424 36.4185 26.6512 36.4872 26.8562C36.7825 27.743 37.0299 28.6572 37.4502 29.4989C37.8753 30.3519 38.4359 31.1523 39.0199 31.9028C39.2324 32.1755 39.4525 32.4407 39.6801 32.7031C40.8059 33.9963 42.2852 35.1531 44.0138 35.4822C44.0825 35.4973 44.1502 35.5086 44.2226 35.5198C44.4615 35.5537 44.7116 35.5772 44.9167 35.7098C45.0154 35.7747 45.1029 35.8763 45.1142 35.9938C45.1132 36.0239 45.1132 36.054 45.1057 36.0851Z" fill="#121646"/>
<path d="M53.9736 56.5967C53.3839 55.1625 52.9485 53.6615 52.5064 52.1718C52.0033 50.4742 51.5867 48.7513 51.0891 47.0528C50.9424 46.5525 50.6932 46.0662 50.4064 45.628C50.1214 45.1916 49.8252 45.2584 49.6747 45.7502C49.2693 47.0706 48.9242 48.4108 48.4728 49.7143C47.6564 52.0665 46.5438 54.2549 45.0212 56.2563C44.2613 57.2551 43.4111 58.1805 42.5318 59.0739C42.0916 59.5207 41.644 59.9599 41.1944 60.3981C40.8013 60.7818 40.3894 61.1844 40.6668 61.7665C40.8822 62.2179 41.3609 62.2612 41.8048 62.2593C41.8687 62.2593 41.9318 62.2574 41.9938 62.2565C44.2651 62.2189 46.5363 62.281 48.8066 62.3073C50.3923 62.3252 51.9788 62.3901 53.5635 62.3543C54.2322 62.3393 54.9658 62.3609 55.5103 61.8126C56.1216 61.1966 56.2204 60.7273 55.7802 59.9758C55.1332 58.8746 54.457 57.7723 53.9736 56.5967Z" fill="url(#paint0_radial_247_49)"/>
<path d="M58.4181 37.7948C58.1228 37.7224 57.8341 37.6434 57.5538 37.5522C54.6459 36.623 52.6361 34.7345 50.425 32.6081C50.0874 32.2818 49.9774 31.9103 50.0009 31.4438C50.126 29.2713 49.8645 27.1252 49.4817 24.994C48.9428 22.0212 48.0522 19.1471 46.839 16.3755C46.5663 15.7539 46.2023 15.2037 46.0123 14.5444C45.9935 14.472 45.9785 14.3892 46.0274 14.3319C46.08 14.2679 46.1863 14.283 46.2662 14.313C46.9716 14.6008 48.0936 17.79 49.0002 16.9746C49.1939 16.8006 49.2654 16.5345 49.3153 16.2805C50.0846 12.481 49.114 6.62654 45.7208 4.27629C44.1624 3.19569 42.4526 2.14517 40.583 1.72478C39.6274 1.51223 38.5882 1.52352 37.7089 1.95614C37.2725 2.16868 36.8784 2.4828 36.4044 2.5966C35.559 2.80538 34.7172 2.33139 33.883 2.07746C32.8711 1.77369 31.767 1.78873 30.7663 2.12636C29.9622 2.39534 29.159 2.8731 28.3248 2.71792C27.168 2.50161 26.3338 1.16708 25.1357 0.75797C23.6986 0.26516 22.1026 0.265162 20.6308 0.595269C16.4071 1.54327 12.4412 4.50859 9.48713 7.56043C6.24532 10.9085 4.95593 15.3372 7.82249 19.3794C8.84667 20.824 10.3514 21.9497 12.0687 22.3936C12.4026 22.4811 12.7553 22.5488 13.0318 22.7538C14.1237 23.5654 11.8186 25.7379 11.3258 26.4433C10.264 27.9716 9.27458 29.5563 8.53913 31.2698C7.17451 34.4439 6.57918 37.6359 6.10142 41.0339C5.27475 46.9109 4.16781 52.9516 1.4188 58.2596C0.974899 59.1126 0.4219 59.9619 0.0729841 60.8572C-0.010718 61.0697 -0.0370513 61.3199 0.0729841 61.5174C0.137877 61.6312 0.243212 61.7187 0.357009 61.7789C0.971139 62.1203 1.90409 62.0441 2.58311 62.0478C4.63052 62.0554 6.67793 62.0629 8.72911 62.0666C9.77209 62.0704 10.8141 62.0742 11.8571 62.0742C12.6076 62.0742 13.7117 62.2641 14.3936 61.903C14.8337 61.6716 15.0764 61.1788 15.1977 60.6936C15.3754 59.9807 15.4892 59.249 15.6792 58.5361C16.2632 56.3561 17.0937 54.2814 18.1592 52.2876C19.8502 49.121 21.6174 45.5425 18.4781 42.6524C17.6514 41.8944 16.6996 41.2915 15.8128 40.6088C15.6425 40.4762 15.4751 40.2072 15.6538 40.0858C15.7225 40.0369 15.8165 40.0482 15.904 40.067C19.3283 40.7837 22.4939 44.4619 22.2813 47.984C22.1675 49.8226 21.4283 51.4722 20.8669 53.1782C20.2979 54.9115 19.6311 56.6251 19.4712 58.4675C19.4063 59.1954 19.3311 59.9308 19.3236 60.6625C19.3123 61.6105 19.6687 62.0996 20.7455 62.1033C24.6852 62.1108 28.6248 62.172 32.5645 62.2096C33.5651 62.2209 35.621 62.551 36.0226 61.2578C36.1703 60.7801 35.9812 60.2685 35.7348 59.8358C35.4884 59.4032 35.1734 58.9979 35.0408 58.5163C34.7981 57.6558 35.1771 56.7492 35.5796 55.9498C36.0461 55.0244 36.6264 54.1563 37.0891 53.2309C37.6318 52.2528 38.2685 51.3424 38.7575 50.3305C39.2729 49.2724 39.6905 48.1692 40.0356 47.0473C40.5021 45.5415 40.8397 43.9982 41.1049 42.4474C41.1614 42.1116 41.198 41.7731 41.2385 41.4345C41.2592 41.2643 41.2799 41.094 41.3043 40.9248C41.3316 40.7348 41.3739 40.5091 41.6203 40.5269C43.0903 40.6304 40.8839 49.0439 40.6911 49.5574C40.2397 50.7631 39.698 51.9349 39.0603 53.0569C38.26 54.4638 36.7891 55.741 37.1493 57.5194C37.2781 58.1486 37.4296 59.0515 37.9985 59.4493C38.7791 59.9995 39.7845 59.0853 40.3384 58.5888C41.2103 57.8035 41.9119 56.8677 42.6473 55.9573C44.6721 53.4547 46.2305 50.607 47.3638 47.6003C48.5958 44.3171 49.146 41.0517 49.5777 37.5936C49.604 37.3961 49.6463 37.1723 49.8128 37.0669C50.0028 36.9456 50.2492 37.0368 50.4532 37.1281C52.9558 38.235 55.6597 39.1303 58.3814 38.8679C58.7153 38.8341 59.1319 38.6939 59.1395 38.3601C59.146 38.03 58.7407 37.8701 58.4181 37.7948ZM45.1057 36.0851C45.0794 36.1801 45.007 36.2628 44.9232 36.3164C44.7643 36.4152 44.5518 36.4415 44.3693 36.4603C43.1561 36.5854 41.9617 36.2139 40.8698 35.7211C40.6958 35.6449 40.5209 35.5659 40.3469 35.4785C38.6823 34.6518 37.1352 33.4724 35.8571 32.1228C34.7727 30.9773 33.9159 29.6202 33.3281 28.1569C33.2031 27.8456 33.0554 27.5126 32.983 27.1825C32.9219 26.9023 32.9604 26.5721 33.1767 26.3784C33.3131 26.2571 33.4993 26.2119 33.6771 26.1734C34.2724 26.0558 34.9053 25.9909 35.5082 26.0445C35.7546 26.0596 36.0123 26.1245 36.1872 26.2947C36.3424 26.4424 36.4185 26.6512 36.4872 26.8562C36.7825 27.743 37.0299 28.6572 37.4502 29.4989C37.8753 30.3519 38.4359 31.1523 39.0199 31.9028C39.2324 32.1755 39.4525 32.4407 39.6801 32.7031C40.8059 33.9963 42.2852 35.1531 44.0138 35.4822C44.0825 35.4973 44.1502 35.5086 44.2226 35.5198C44.4615 35.5537 44.7116 35.5772 44.9167 35.7098C45.0154 35.7747 45.1029 35.8763 45.1142 35.9938C45.1132 36.0239 45.1132 36.054 45.1057 36.0851Z" fill="url(#paint1_radial_247_49)"/>
<defs>
<radialGradient id="paint0_radial_247_49" cx="0" cy="0" r="1" gradientUnits="userSpaceOnUse" gradientTransform="translate(-57.839 -57.2298) scale(198.957 198.957)">
<stop stop-color="#732DD9"/>
<stop offset="0.1185" stop-color="#6A2BCB"/>
<stop offset="0.3434" stop-color="#5125A5"/>
<stop offset="0.6486" stop-color="#291C69"/>
<stop offset="0.8139" stop-color="#121646"/>
<stop offset="1" stop-color="#121646"/>
</radialGradient>
<radialGradient id="paint1_radial_247_49" cx="0" cy="0" r="1" gradientUnits="userSpaceOnUse" gradientTransform="translate(-57.8392 -57.2298) scale(198.957 198.957)">
<stop stop-color="#732DD9"/>
<stop offset="0.1185" stop-color="#6A2BCB"/>
<stop offset="0.3434" stop-color="#5125A5"/>
<stop offset="0.6486" stop-color="#291C69"/>
<stop offset="0.8139" stop-color="#121646"/>
<stop offset="1" stop-color="#121646"/>
</radialGradient>
</defs>
</svg>